<?xml version="1.0" encoding="iso-8859-1"?>
<!-- Uploaded to: SVG Repo, www.svgrepo.com, Generator: SVG Repo Mixer Tools -->
<!DOCTYPE svg PUBLIC "-//W3C//DTD SVG 1.1//EN" "http://www.w3.org/Graphics/SVG/1.1/DTD/svg11.dtd">
<svg fill="#000000" height="800px" width="800px" version="1.1" id="Capa_1" xmlns="http://www.w3.org/2000/svg" xmlns:xlink="http://www.w3.org/1999/xlink" 
	 viewBox="0 0 213.605 213.605" xml:space="preserve">
<g>
	<path d="M200.203,161.656L143.86,4.962C142.79,1.985,139.966,0,136.803,0h-60c-3.164,0-5.987,1.985-7.058,4.962L13.402,161.656
		c-0.292,0.814-0.442,1.672-0.442,2.538v41.912c0,4.142,3.358,7.5,7.5,7.5h172.686c4.142,0,7.5-3.358,7.5-7.5v-41.912
		C200.646,163.329,200.496,162.47,200.203,161.656z M82.076,15h49.453l50.949,141.694h-70.676v-4.861h7.5c2.761,0,5-2.239,5-5
		s-2.239-5-5-5h-7.5v-7.36h7.5c2.761,0,5-2.239,5-5s-2.239-5-5-5h-7.5v-7.36h7.5c2.761,0,5-2.239,5-5s-2.239-5-5-5h-7.5v-7.361h7.5
		c2.761,0,5-2.239,5-5s-2.239-5-5-5h-7.5V47.333c0-2.761-2.239-5-5-5s-5,2.239-5,5v42.418h-7.5c-2.761,0-5,2.239-5,5s2.239,5,5,5
		h7.5v7.361h-7.5c-2.761,0-5,2.239-5,5s2.239,5,5,5h7.5v7.36h-7.5c-2.761,0-5,2.239-5,5s2.239,5,5,5h7.5v7.36h-7.5
		c-2.761,0-5,2.239-5,5s2.239,5,5,5h7.5v4.861H31.127L82.076,15z M27.96,198.605v-26.912h157.686v26.912H27.96z"/>
</g>
</svg>